General
Complete name                    : C:\Documents and Settings\Bhushan\Desktop\Apollo 13 Houston Weve Got A Problem_\Apollo_13_Houston_We_Have_A_Problem.mpeg
Format                           : MPEG-PS
File size                        : 880 MiB
Duration                         : 28mn 11s
Overall bit rate                 : 4 365 Kbps

Video
ID                               : 224 (0xE0)
Format                           : MPEG Video
Format version                   : Version 2
Format profile                   : Main@Main
Format settings, BVOP            : Yes
Format settings, Matrix          : Default
Format settings, GOP             : M=3, N=16
Duration                         : 28mn 11s
Bit rate mode                    : Variable
Bit rate                         : 3 894 Kbps
Nominal bit rate                 : 3 500 Kbps
Width                            : 720 pixels
Height                           : 480 pixels
Display aspect ratio             : 4:3
Frame rate                       : 29.970 fps
Standard                         : NTSC
Color space                      : YUV
Chroma subsampling               : 4:2:0
Bit depth                        : 8 bits
Scan type                        : Interlaced
Scan order                       : Top Field First
Compression mode                 : Lossy
Bits/(Pixel*Frame)               : 0.376
Stream size                      : 785 MiB (89%)

Audio
ID                               : 189 (0xBD)-128 (0x80)
Format                           : AC-3
Format/Info                      : Audio Coding 3
Mode extension                   : CM (complete main)
Muxing mode                      : DVD-Video
Duration                         : 28mn 11s
Bit rate mode                    : Constant
Bit rate                         : 384 Kbps
Channel(s)                       : 2 channels
Channel positions                : Front: L R
Sampling rate                    : 48.0 KHz
Bit depth                        : 16 bits
Compression mode                 : Lossy
Delay relative to video          : -154ms
Stream size                      : 77.4 MiB (9%)

Menu

